<?xml version="1.0" standalone="no"?>
<!DOCTYPE svg PUBLIC "-//W3C//DTD SVG 20010904//EN"
 "http://www.w3.org/TR/2001/REC-SVG-20010904/DTD/svg10.dtd">
<svg version="1.0" xmlns="http://www.w3.org/2000/svg"
 width="64.000000pt" height="64.000000pt" viewBox="0 0 64.000000 64.000000"
 preserveAspectRatio="xMidYMid meet">

<g transform="translate(0.000000,64.000000) scale(0.100000,-0.100000)"
fill="#000000" stroke="none">
<path d="M90 495 l0 -45 230 0 230 0 0 45 0 45 -230 0 -230 0 0 -45z"/>
<path d="M80 325 l0 -45 230 0 230 0 0 45 0 45 -230 0 -230 0 0 -45z"/>
<path d="M90 155 l0 -45 230 0 230 0 0 45 0 45 -230 0 -230 0 0 -45z"/>
</g>
</svg>
