<?xml version="1.0" standalone="no"?>
<!DOCTYPE svg PUBLIC "-//W3C//DTD SVG 20010904//EN"
 "http://www.w3.org/TR/2001/REC-SVG-20010904/DTD/svg10.dtd">
<svg version="1.0" xmlns="http://www.w3.org/2000/svg"
 width="1024.000000pt" height="1024.000000pt" viewBox="0 0 1024.000000 1024.000000"
 preserveAspectRatio="xMidYMid meet">

<g transform="translate(0.000000,1024.000000) scale(0.100000,-0.100000)"
fill="#000000" stroke="none">
<path d="M4545 10163 c-633 -39 -1250 -203 -1820 -483 -463 -227 -840 -493
-1214 -855 -398 -387 -708 -813 -951 -1310 -251 -512 -399 -1021 -467 -1616
-26 -228 -26 -1330 0 -1558 68 -595 216 -1104 467 -1616 227 -463 493 -840
855 -1214 387 -398 813 -708 1310 -951 512 -251 1021 -399 1616 -467 228 -26
1330 -26 1558 0 595 68 1104 216 1616 467 1366 669 2329 1957 2585 3456 61
357 65 420 65 1104 0 534 -3 647 -18 779 -68 595 -216 1104 -467 1616 -669
1365 -1957 2329 -3455 2585 -340 58 -410 63 -1040 65 -319 1 -607 0 -640 -2z
m763 -618 c884 -93 1734 -435 2431 -979 1025 -798 1678 -1984 1808 -3282 15
-152 15 -176 0 -328 -58 -572 -212 -1112 -467 -1631 -227 -463 -493 -840 -855
-1214 -387 -398 -813 -708 -1310 -951 -519 -255 -1060 -409 -1631 -467 -152
-15 -176 -15 -328 0 -571 58 -1112 212 -1631 467 -1475 723 -2467 2155 -2632
3796 -15 152 -15 176 0 328 58 572 212 1112 467 1631 227 463 493 840 855
1214 538 554 1192 962 1930 1206 282 92 671 176 976 209 168 19 215 19 387 1z"/>
<path d="M4800 8409 c-381 -23 -777 -89 -1245 -209 -192 -49 -438 -125 -520
-160 l-45 -19 0 -706 0 -705 91 0 c91 0 92 0 168 46 348 211 808 384 1186 445
121 20 464 17 603 -4 367 -57 602 -196 711 -419 50 -102 68 -171 83 -311 33
-321 -75 -621 -314 -873 -93 -98 -177 -165 -347 -279 -250 -167 -486 -265
-933 -390 l-138 -39 0 -783 0 -783 815 0 815 0 2 531 3 531 105 42 c388 158
735 350 1000 554 124 96 364 341 443 452 85 122 207 364 252 504 40 122 78
302 96 451 19 165 15 470 -9 605 -75 416 -291 755 -656 1027 -515 384 -1236
548 -2166 492z"/>
<path d="M3990 1980 l0 -610 935 0 935 0 0 610 0 610 -935 0 -935 0 0 -610z"/>
</g>
</svg>
